<svg aria-hidden="true" style="position: absolute; width: 0; height: 0; overflow: hidden;" version="1.1" xmlns="http://www.w3.org/2000/svg" xmlns:xlink="http://www.w3.org/1999/xlink">
<defs>
<symbol id="icon-flower" viewBox="0 0 32 32">
<path d="M24 10.001v-5c0-0.552-0.448-1-1-1h-1v-3c0-0.552-0.448-1-1-1-1.416 0-3.584-0.108-6.129 1.416-1.582-0.471-2.701-0.416-3.871-0.416-0.552 0-1 0.448-1 1v2h-1c-0.552 0-1 0.448-1 1v5c0 4.072 3.059 7.444 7 7.937v13.062c0 0.552 0.448 1 1 1s1-0.448 1-1v-3.5h1.5c3.033 0 5.5-2.467 5.5-5.5v-1.5c0-0.552-0.448-1-1-1h-2.5c-1.328 0-2.548 0.473-3.5 1.26v-2.823c3.935-0.487 7-3.842 7-7.937zM22 10.001c0 1.78-0.787 3.387-2.031 4.489 0.020-0.16 0.031-0.323 0.031-0.489 0-2.532-0.947-4.847-2.504-6.611 1.32-0.901 2.886-1.389 4.504-1.389v4zM20 2.002v2.202c-0.185 0.038-0.368 0.081-0.55 0.128-0.649-0.726-1.389-1.345-2.196-1.845 0.873-0.319 1.8-0.485 2.747-0.485zM12 3.002c1.987 0 3.916 0.725 5.416 2.111-0.495 0.256-0.97 0.553-1.419 0.891-1.163-0.874-2.521-1.501-3.997-1.802v-1.201zM10 10.001v-4c4.411 0 8 3.589 8 8 0 1.117-0.923 2.028-2.052 1.999-3.513-0.087-5.947-2.878-5.947-5.999zM20.5 21.501h1.5v0.5c0 1.93-1.57 3.5-3.5 3.5h-1.5v-0.5c0-1.93 1.57-3.5 3.5-3.5z"></path>
</symbol>
<symbol id="icon-in" viewBox="0 0 32 32">
<path d="M26.667 25.333h-4.103v-7.471c0-2.049-0.869-3.193-2.427-3.193-1.695 0-2.702 1.191-2.702 3.193v7.471h-4.103v-13.877h4.103v1.561c0 0 1.287-2.351 4.188-2.351s5.043 1.842 5.043 5.655c0 3.812 0 9.011 0 9.011zM7.334 8c-1.105 0-2-0.896-2-2s0.895-2 2-2c1.104 0 2 0.896 2 2s-0.895 2-2 2zM5.333 25.333h4v-13.333h-4v13.333z"></path>
</symbol>
<symbol id="icon-Google" viewBox="0 0 32 32">
<path d="M25.167 14.137h-8.97c0 0.933 0 2.798-0.006 3.731h5.198c-0.199 0.933-0.905 2.239-1.903 2.896-0.001-0.001-0.002 0.006-0.004 0.005-1.327 0.876-3.077 1.075-4.377 0.813-2.037-0.405-3.65-1.882-4.305-3.759 0.004-0.003 0.007-0.029 0.010-0.031-0.41-1.164-0.41-2.723 0-3.656h-0.001c0.528-1.714 2.189-3.279 4.229-3.707 1.641-0.348 3.493 0.029 4.855 1.303 0.181-0.177 2.506-2.448 2.681-2.632-4.653-4.213-12.102-2.731-14.89 2.71h-0.001c0 0 0.001 0-0.005 0.010-1.379 2.673-1.322 5.822 0.010 8.366-0.004 0.003-0.007 0.005-0.010 0.007 1.206 2.341 3.402 4.137 6.048 4.821 2.81 0.737 6.387 0.233 8.783-1.934 0.001 0.001 0.002 0.002 0.003 0.003 2.030-1.828 3.294-4.943 2.655-8.947z"></path>
</symbol>
<symbol id="icon-Facebook" viewBox="0 0 32 32">
<path d="M17.943 25.333v-9h2.915l0.476-4h-3.391v-1.948c0-1.030 0.028-2.052 1.563-2.052h1.555v-2.86c0-0.043-1.336-0.14-2.687-0.14-2.822 0-4.589 1.657-4.589 4.7v2.3h-3.118v4h3.118v9h4.158z"></path>
</symbol>
</defs>
</svg>
